<mxfile host="app.diagrams.net" agent="Mozilla/5.0 (Windows NT 10.0; Win64; x64) AppleWebKit/537.36 (KHTML, like Gecko) Chrome/131.0.0.0 Safari/537.36" version="26.0.6">
  <diagram name="Page-1" id="JyyjUiMfEBk-dc2TTWM5">
    <mxGraphModel dx="2537" dy="1978" grid="1" gridSize="10" guides="1" tooltips="1" connect="1" arrows="1" fold="1" page="1" pageScale="1" pageWidth="850" pageHeight="1100" math="0" shadow="0">
      <root>
        <mxCell id="0" />
        <mxCell id="1" parent="0" />
        <mxCell id="4U-bfrUDjUq5PcVRqzK_-1" value="" style="rounded=0;whiteSpace=wrap;html=1;fillColor=#dae8fc;strokeColor=#6c8ebf;" parent="1" vertex="1">
          <mxGeometry x="-120" y="-100" width="240" height="320" as="geometry" />
        </mxCell>
        <mxCell id="4U-bfrUDjUq5PcVRqzK_-3" value="" style="rounded=0;whiteSpace=wrap;html=1;fillColor=#e1d5e7;strokeColor=#9673a6;" parent="1" vertex="1">
          <mxGeometry x="-120" y="220" width="240" height="410" as="geometry" />
        </mxCell>
        <mxCell id="4U-bfrUDjUq5PcVRqzK_-4" value="" style="rounded=0;whiteSpace=wrap;html=1;" parent="1" vertex="1">
          <mxGeometry x="-110" y="-90" width="220" height="140" as="geometry" />
        </mxCell>
        <mxCell id="4U-bfrUDjUq5PcVRqzK_-6" value="Interrupt/Trap[0]" style="rounded=0;whiteSpace=wrap;html=1;" parent="1" vertex="1">
          <mxGeometry x="-110" y="-90" width="220" height="20" as="geometry" />
        </mxCell>
        <mxCell id="4U-bfrUDjUq5PcVRqzK_-14" value="Boot Loader and&amp;nbsp;&lt;div&gt;Firmware Update Region&lt;/div&gt;" style="text;html=1;strokeColor=none;fillColor=none;align=center;verticalAlign=middle;whiteSpace=wrap;rounded=0;" parent="1" vertex="1">
          <mxGeometry x="110" y="50" width="230" height="30" as="geometry" />
        </mxCell>
        <mxCell id="4U-bfrUDjUq5PcVRqzK_-17" value="ResetVector" style="rounded=0;whiteSpace=wrap;html=1;fillColor=#dae8fc;strokeColor=#6c8ebf;" parent="1" vertex="1">
          <mxGeometry x="-120" y="-130" width="240" height="30" as="geometry" />
        </mxCell>
        <mxCell id="4U-bfrUDjUq5PcVRqzK_-18" value="0x800000" style="text;html=1;strokeColor=none;fillColor=none;align=center;verticalAlign=middle;whiteSpace=wrap;rounded=0;" parent="1" vertex="1">
          <mxGeometry x="-230" y="-140" width="60" height="30" as="geometry" />
        </mxCell>
        <mxCell id="4U-bfrUDjUq5PcVRqzK_-19" value="" style="endArrow=none;dashed=1;html=1;dashPattern=1 3;strokeWidth=2;rounded=0;exitX=0;exitY=0;exitDx=0;exitDy=0;entryX=1;entryY=0.5;entryDx=0;entryDy=0;" parent="1" source="4U-bfrUDjUq5PcVRqzK_-17" target="4U-bfrUDjUq5PcVRqzK_-18" edge="1">
          <mxGeometry width="50" height="50" relative="1" as="geometry">
            <mxPoint x="50" y="250" as="sourcePoint" />
            <mxPoint x="-380" as="targetPoint" />
          </mxGeometry>
        </mxCell>
        <mxCell id="4U-bfrUDjUq5PcVRqzK_-22" value="0x805000" style="text;html=1;strokeColor=none;fillColor=none;align=center;verticalAlign=middle;whiteSpace=wrap;rounded=0;" parent="1" vertex="1">
          <mxGeometry x="-230" y="210" width="60" height="30" as="geometry" />
        </mxCell>
        <mxCell id="4U-bfrUDjUq5PcVRqzK_-23" value="" style="endArrow=none;dashed=1;html=1;dashPattern=1 3;strokeWidth=2;rounded=0;exitX=1;exitY=0.5;exitDx=0;exitDy=0;entryX=0;entryY=1;entryDx=0;entryDy=0;" parent="1" source="4U-bfrUDjUq5PcVRqzK_-22" target="4U-bfrUDjUq5PcVRqzK_-1" edge="1">
          <mxGeometry width="50" height="50" relative="1" as="geometry">
            <mxPoint x="50" y="250" as="sourcePoint" />
            <mxPoint x="100" y="200" as="targetPoint" />
          </mxGeometry>
        </mxCell>
        <mxCell id="4U-bfrUDjUq5PcVRqzK_-24" value="" style="rounded=0;whiteSpace=wrap;html=1;" parent="1" vertex="1">
          <mxGeometry x="-110" y="280" width="220" height="160" as="geometry" />
        </mxCell>
        <mxCell id="4U-bfrUDjUq5PcVRqzK_-25" value="IVT" style="text;html=1;strokeColor=none;fillColor=none;align=center;verticalAlign=middle;whiteSpace=wrap;rounded=0;" parent="1" vertex="1">
          <mxGeometry x="-110" y="290" width="90" height="30" as="geometry" />
        </mxCell>
        <mxCell id="4U-bfrUDjUq5PcVRqzK_-26" value="Reset" style="rounded=0;whiteSpace=wrap;html=1;" parent="1" vertex="1">
          <mxGeometry x="-20" y="290" width="120" height="20" as="geometry" />
        </mxCell>
        <mxCell id="4U-bfrUDjUq5PcVRqzK_-27" value="Interrupt[0]" style="rounded=0;whiteSpace=wrap;html=1;" parent="1" vertex="1">
          <mxGeometry x="-20" y="310" width="120" height="20" as="geometry" />
        </mxCell>
        <mxCell id="4U-bfrUDjUq5PcVRqzK_-28" value="Interrupt[1]" style="rounded=0;whiteSpace=wrap;html=1;" parent="1" vertex="1">
          <mxGeometry x="-20" y="330" width="120" height="20" as="geometry" />
        </mxCell>
        <mxCell id="4U-bfrUDjUq5PcVRqzK_-29" value="Interrupt[2]" style="rounded=0;whiteSpace=wrap;html=1;" parent="1" vertex="1">
          <mxGeometry x="-20" y="350" width="120" height="20" as="geometry" />
        </mxCell>
        <mxCell id="4U-bfrUDjUq5PcVRqzK_-30" value="Interrupt[3]" style="rounded=0;whiteSpace=wrap;html=1;" parent="1" vertex="1">
          <mxGeometry x="-20" y="370" width="120" height="20" as="geometry" />
        </mxCell>
        <mxCell id="4U-bfrUDjUq5PcVRqzK_-31" value="..." style="rounded=0;whiteSpace=wrap;html=1;" parent="1" vertex="1">
          <mxGeometry x="-20" y="390" width="120" height="20" as="geometry" />
        </mxCell>
        <mxCell id="4U-bfrUDjUq5PcVRqzK_-32" value="Code" style="rounded=0;whiteSpace=wrap;html=1;" parent="1" vertex="1">
          <mxGeometry x="-110" y="450" width="220" height="150" as="geometry" />
        </mxCell>
        <mxCell id="4U-bfrUDjUq5PcVRqzK_-33" value="" style="shape=curlyBracket;whiteSpace=wrap;html=1;rounded=1;flipH=1;labelPosition=right;verticalLabelPosition=middle;align=left;verticalAlign=middle;size=0.5;" parent="1" vertex="1">
          <mxGeometry x="130" y="-100" width="20" height="320" as="geometry" />
        </mxCell>
        <mxCell id="4U-bfrUDjUq5PcVRqzK_-38" value="" style="shape=curlyBracket;whiteSpace=wrap;html=1;rounded=1;flipH=1;labelPosition=right;verticalLabelPosition=middle;align=left;verticalAlign=middle;size=0.5;" parent="1" vertex="1">
          <mxGeometry x="130" y="220" width="20" height="410" as="geometry" />
        </mxCell>
        <mxCell id="4U-bfrUDjUq5PcVRqzK_-39" value="Application Image" style="text;html=1;strokeColor=none;fillColor=none;align=center;verticalAlign=middle;whiteSpace=wrap;rounded=0;" parent="1" vertex="1">
          <mxGeometry x="130" y="410" width="170" height="30" as="geometry" />
        </mxCell>
        <mxCell id="4U-bfrUDjUq5PcVRqzK_-40" value="Interrupt[n]" style="rounded=0;whiteSpace=wrap;html=1;" parent="1" vertex="1">
          <mxGeometry x="-20" y="410" width="120" height="20" as="geometry" />
        </mxCell>
        <mxCell id="LExkYCUsJhvmwSZ1FQ3I-1" value="0x81FFFF" style="text;html=1;strokeColor=none;fillColor=none;align=center;verticalAlign=middle;whiteSpace=wrap;rounded=0;" parent="1" vertex="1">
          <mxGeometry x="-230" y="610" width="60" height="30" as="geometry" />
        </mxCell>
        <mxCell id="LExkYCUsJhvmwSZ1FQ3I-2" value="" style="endArrow=none;dashed=1;html=1;dashPattern=1 3;strokeWidth=2;rounded=0;exitX=0;exitY=1;exitDx=0;exitDy=0;" parent="1" source="4U-bfrUDjUq5PcVRqzK_-3" target="LExkYCUsJhvmwSZ1FQ3I-1" edge="1">
          <mxGeometry width="50" height="50" relative="1" as="geometry">
            <mxPoint x="-260" y="830" as="sourcePoint" />
            <mxPoint x="-210" y="780" as="targetPoint" />
          </mxGeometry>
        </mxCell>
        <mxCell id="G321907Ha4ZdyygtrB1a-1" value="Interrupt/Trap[0]" style="rounded=0;whiteSpace=wrap;html=1;" vertex="1" parent="1">
          <mxGeometry x="-110" y="-70" width="220" height="20" as="geometry" />
        </mxCell>
        <mxCell id="G321907Ha4ZdyygtrB1a-2" value="Interrupt/Trap[0]" style="rounded=0;whiteSpace=wrap;html=1;" vertex="1" parent="1">
          <mxGeometry x="-110" y="-50" width="220" height="20" as="geometry" />
        </mxCell>
        <mxCell id="G321907Ha4ZdyygtrB1a-3" value="Interrupt/Trap[n]" style="rounded=0;whiteSpace=wrap;html=1;" vertex="1" parent="1">
          <mxGeometry x="-110" y="30" width="220" height="20" as="geometry" />
        </mxCell>
        <mxCell id="G321907Ha4ZdyygtrB1a-4" value="&lt;font style=&quot;font-size: 24px;&quot;&gt;&lt;b&gt;...&lt;/b&gt;&lt;/font&gt;" style="text;html=1;align=center;verticalAlign=middle;whiteSpace=wrap;rounded=0;" vertex="1" parent="1">
          <mxGeometry x="-30" y="-20" width="60" height="30" as="geometry" />
        </mxCell>
        <mxCell id="G321907Ha4ZdyygtrB1a-5" value="Code" style="rounded=0;whiteSpace=wrap;html=1;" vertex="1" parent="1">
          <mxGeometry x="-110" y="60" width="220" height="150" as="geometry" />
        </mxCell>
        <mxCell id="G321907Ha4ZdyygtrB1a-6" value="Application Header" style="rounded=0;whiteSpace=wrap;html=1;" vertex="1" parent="1">
          <mxGeometry x="-110" y="230" width="220" height="50" as="geometry" />
        </mxCell>
      </root>
    </mxGraphModel>
  </diagram>
</mxfile>
